<svg width="31" height="31" viewBox="0 0 31 31" fill="none" xmlns="http://www.w3.org/2000/svg">
<g clip-path="url(#clip0_7_7)">
<path d="M31 5.16701C31 2.4521 28.5489 0 25.8333 0H5.16667C2.45107 0 0 2.4521 0 5.16701V25.833C0 28.5479 2.45107 31 5.16701 31H15.5V19.2889H11.7111V14.1222H15.5V12.1093C15.5 8.63763 18.1068 5.51111 21.3125 5.51111H25.4889V10.6778H21.3125C20.8554 10.6778 20.3222 11.2327 20.3222 12.0638V14.1222H25.4889V19.2889H20.3222V31H25.8333C28.5489 31 31 28.5479 31 25.833V5.16701Z" fill="white"/>
</g>
<defs>
<clipPath id="clip0_7_7">
<rect width="31" height="31" fill="white"/>
</clipPath>
</defs>
</svg>
