<svg width="31" height="31" viewBox="0 0 31 31" fill="none" xmlns="http://www.w3.org/2000/svg">
<g clip-path="url(#clip0_7_25)">
<path d="M21.3125 0H9.6875C4.33806 0 0 4.33806 0 9.6875V21.3125C0 26.6619 4.33806 31 9.6875 31H21.3125C26.6619 31 31 26.6619 31 21.3125V9.6875C31 4.33806 26.6619 0 21.3125 0ZM28.0938 21.3125C28.0938 25.0519 25.0519 28.0938 21.3125 28.0938H9.6875C5.94812 28.0938 2.90625 25.0519 2.90625 21.3125V9.6875C2.90625 5.94812 5.94812 2.90625 9.6875 2.90625H21.3125C25.0519 2.90625 28.0938 5.94812 28.0938 9.6875V21.3125Z" fill="white"/>
<path d="M15.5 7.75C11.2201 7.75 7.75 11.2201 7.75 15.5C7.75 19.7799 11.2201 23.25 15.5 23.25C19.7799 23.25 23.25 19.7799 23.25 15.5C23.25 11.2201 19.7799 7.75 15.5 7.75ZM15.5 20.3438C12.8301 20.3438 10.6562 18.1699 10.6562 15.5C10.6562 12.8282 12.8301 10.6562 15.5 10.6562C18.1699 10.6562 20.3438 12.8282 20.3438 15.5C20.3438 18.1699 18.1699 20.3438 15.5 20.3438Z" fill="white"/>
<path d="M23.8313 8.20148C24.4016 8.20148 24.864 7.73913 24.864 7.16879C24.864 6.59846 24.4016 6.13611 23.8313 6.13611C23.2609 6.13611 22.7986 6.59846 22.7986 7.16879C22.7986 7.73913 23.2609 8.20148 23.8313 8.20148Z" fill="white"/>
</g>
<defs>
<clipPath id="clip0_7_25">
<rect width="31" height="31" fill="white"/>
</clipPath>
</defs>
</svg>
